# cube.obj
#

o cube
mtllib cube.mtl

v -0.500000 -0.500000 0.500000
v 0.500000 -0.500000 0.500000
v -0.500000 0.500000 0.500000
v 0.500000 0.500000 0.500000
v -0.500000 0.500000 -0.500000
v 0.500000 0.500000 -0.500000
v -0.500000 -0.500000 -0.500000
v 0.500000 -0.500000 -0.500000

vt 0.000000 0.000000
vt 0.250000 0.000000
vt 0.500000 0.000000
vt 0.750000 0.000000
vt 1.000000 0.000000
vt 0.000000 0.330000
vt 0.250000 0.330000
vt 0.500000 0.330000
vt 0.750000 0.330000
vt 1.000000 0.330000
vt 0.000000 0.660000
vt 0.250000 0.660000
vt 0.500000 0.660000
vt 0.750000 0.660000
vt 1.000000 0.660000
vt 0.000000 1.000000
vt 0.250000 1.000000
vt 0.500000 1.000000
vt 0.750000 1.000000
vt 1.000000 1.000000

vn 0.000000 0.000000 1.000000
vn 0.000000 1.000000 0.000000
vn 0.000000 0.000000 -1.000000
vn 0.000000 -1.000000 0.000000
vn 1.000000 0.000000 0.000000
vn -1.000000 0.000000 0.000000

g cube
usemtl cube
s 1
f 1/7/1 2/8/1 3/2/1
f 3/2/1 2/8/1 4/3/1
s 2
f 3/10/2 4/9/2 5/15/2
f 5/15/2 4/9/2 6/14/2
s 3
f 5/17/3 6/18/3 7/12/3
f 7/12/3 6/18/3 8/13/3
s 4
f 7/12/4 8/13/4 1/7/4
f 1/7/4 8/13/4 2/8/4
s 5
f 2/8/5 8/13/5 4/9/5
f 4/9/5 8/13/5 6/14/5
s 6
f 7/12/6 1/7/6 5/11/6
f 5/11/6 1/7/6 3/6/6
